<?xml version="1.0" encoding="UTF-8" standalone="no"?>
<svg  id="bird" viewBox="0 0 225 141" version="1.1" xmlns="http://www.w3.org/2000/svg" xmlns:xlink="http://www.w3.org/1999/xlink" xmlns:sketch="http://www.bohemiancoding.com/sketch/ns">

    <g id="Page-1" stroke="none" stroke-width="1" fill="none" fill-rule="evenodd" sketch:type="MSPage">
        <g sketch:type="MSLayerGroup" transform="translate(2.000000, -98.000000)" stroke="#000000" stroke-width="4">
            <g transform="translate(0.000000, 96.000000)" sketch:type="MSShapeGroup">
                <path d="M0.383908028,93.309908 C-3.38743143,119.348268 21.8693957,140.19085 21.8693957,140.19085 L177.576065,140.190849 C177.576065,140.190849 208.95723,124.394514 182.373124,83.1891397 C154.780935,40.4212372 71.5007186,33.6890462 47.5468979,32.052659 C23.5930772,30.4162719 4.15524749,67.271548 0.383908028,93.309908 Z" id="body"></path>
                <g id="leg" transform="translate(101.000000, 0.000000)">
                    <path d="M51.7316386,48.5941756 L77.2179264,36 L90.2792296,44.7890722 L69.0835729,86.8732615 C69.0835729,86.8732615 54.8773262,111.59305 38.365037,115.493377 C22.9670691,119.130493 5.29202207,102.17294 2.53747675,96.8540738 C-3.17095503,85.831426 0.902514416,71.8653194 13.2410551,67.7300407 C25.5795957,63.594762 51.7316386,48.5941756 51.7316386,48.5941756 Z" id="thigh"></path>
                    <path d="M81.9380105,41.8481962 L94.13425,46.2843992 L106.590368,27.2413783 C106.590368,27.2413783 115.734555,30.3931905 118.045982,24.6216608 C120.357408,18.8501311 117.835336,15.4141701 115.528534,13.017832 C113.221733,10.621494 105.272728,11.352625 105.272728,11.352625 C105.272728,11.352625 104.947395,7.82879001 102.715262,5.01194525 C100.483129,2.19510049 93.3075091,4.96271154 91.0654853,8.37200155 C88.8234616,11.7812916 93.2160991,20.4945871 93.2160991,20.4945871 L81.9380105,41.8481962 Z" id="bone" transform="translate(100.449791, 25.067045) rotate(-346.000000) translate(-100.449791, -25.067045) "></path>
                </g>
            </g>
        </g>
    </g>
</svg>
