<?xml version="1.0" encoding="UTF-8" standalone="no"?>
<svg width="82px" height="108px" viewBox="0 0 82 108" version="1.1" xmlns="http://www.w3.org/2000/svg" xmlns:xlink="http://www.w3.org/1999/xlink" xmlns:sketch="http://www.bohemiancoding.com/sketch/ns">
    <!-- Generator: Sketch 3.4.4 (17248) - http://www.bohemiancoding.com/sketch -->
    <title>smell</title>
    <desc>Created with Sketch.</desc>
    <defs></defs>
    <g id="Page-1" stroke="none" stroke-width="1" fill="none" fill-rule="evenodd" sketch:type="MSPage">
        <g id="Cooked" sketch:type="MSLayerGroup" transform="translate(-46.000000, 2.000000)" stroke="#979797" stroke-width="4">
            <g id="smell" transform="translate(48.000000, 0.000000)" sketch:type="MSShapeGroup">
                <g transform="translate(0.000000, 10.000000)" id="Path-9">
                    <path d="M5.00000005,93.4999963 C5.00000005,93.4999963 14.4999996,90.9999963 16.8070418,67.4241945 C18.4263436,50.8764531 3.97052969,50.5000001 1.00000001,29.5000001 C-1.97052967,8.50000012 9.52506233,0.0832101142 9.52506233,0.0832101142"></path>
                </g>
                <g id="smell-copy" transform="translate(33.000000, 0.000000)">
                    <path d="M5.00000005,93.4999963 C5.00000005,93.4999963 14.4999996,90.9999963 16.8070418,67.4241945 C18.4263436,50.8764531 3.97052969,50.5000001 1.00000001,29.5000001 C-1.97052967,8.50000012 9.52506233,0.0832101142 9.52506233,0.0832101142" id="Path-9"></path>
                </g>
                <g id="smell-copy-2" transform="translate(61.000000, 0.000000)">
                    <path d="M5.00000005,93.4999963 C5.00000005,93.4999963 14.4999996,90.9999963 16.8070418,67.4241945 C18.4263436,50.8764531 3.97052969,50.5000001 1.00000001,29.5000001 C-1.97052967,8.50000012 9.52506233,0.0832101142 9.52506233,0.0832101142" id="Path-9"></path>
                </g>
            </g>
        </g>
    </g>
</svg>